<svg width="83" height="15" viewBox="0 0 83 15" fill="none" xmlns="http://www.w3.org/2000/svg">
<path d="M1.5 6.5C0.947715 6.5 0.5 6.94772 0.5 7.5C0.5 8.05228 0.947715 8.5 1.5 8.5V6.5ZM82.2071 8.20711C82.5976 7.81658 82.5976 7.18342 82.2071 6.79289L75.8431 0.428932C75.4526 0.0384078 74.8195 0.0384078 74.4289 0.428932C74.0384 0.819457 74.0384 1.45262 74.4289 1.84315L80.0858 7.5L74.4289 13.1569C74.0384 13.5474 74.0384 14.1805 74.4289 14.5711C74.8195 14.9616 75.4526 14.9616 75.8431 14.5711L82.2071 8.20711ZM3.03846 8.5C3.59075 8.5 4.03846 8.05228 4.03846 7.5C4.03846 6.94772 3.59075 6.5 3.03846 6.5V8.5ZM6.11538 6.5C5.5631 6.5 5.11538 6.94772 5.11538 7.5C5.11538 8.05228 5.5631 8.5 6.11538 8.5V6.5ZM9.19231 8.5C9.74459 8.5 10.1923 8.05228 10.1923 7.5C10.1923 6.94772 9.74459 6.5 9.19231 6.5V8.5ZM12.2692 6.5C11.7169 6.5 11.2692 6.94772 11.2692 7.5C11.2692 8.05228 11.7169 8.5 12.2692 8.5V6.5ZM15.3462 8.5C15.8984 8.5 16.3462 8.05228 16.3462 7.5C16.3462 6.94772 15.8984 6.5 15.3462 6.5V8.5ZM18.4231 6.5C17.8708 6.5 17.4231 6.94772 17.4231 7.5C17.4231 8.05228 17.8708 8.5 18.4231 8.5V6.5ZM21.5 8.5C22.0523 8.5 22.5 8.05228 22.5 7.5C22.5 6.94772 22.0523 6.5 21.5 6.5V8.5ZM24.5769 6.5C24.0246 6.5 23.5769 6.94772 23.5769 7.5C23.5769 8.05228 24.0246 8.5 24.5769 8.5V6.5ZM27.6538 8.5C28.2061 8.5 28.6538 8.05228 28.6538 7.5C28.6538 6.94772 28.2061 6.5 27.6538 6.5V8.5ZM30.7308 6.5C30.1785 6.5 29.7308 6.94772 29.7308 7.5C29.7308 8.05228 30.1785 8.5 30.7308 8.5V6.5ZM33.8077 8.5C34.36 8.5 34.8077 8.05228 34.8077 7.5C34.8077 6.94772 34.36 6.5 33.8077 6.5V8.5ZM36.8846 6.5C36.3323 6.5 35.8846 6.94772 35.8846 7.5C35.8846 8.05228 36.3323 8.5 36.8846 8.5V6.5ZM39.9615 8.5C40.5138 8.5 40.9615 8.05228 40.9615 7.5C40.9615 6.94772 40.5138 6.5 39.9615 6.5V8.5ZM43.0385 6.5C42.4862 6.5 42.0385 6.94772 42.0385 7.5C42.0385 8.05228 42.4862 8.5 43.0385 8.5V6.5ZM46.1154 8.5C46.6677 8.5 47.1154 8.05228 47.1154 7.5C47.1154 6.94772 46.6677 6.5 46.1154 6.5V8.5ZM49.1923 6.5C48.64 6.5 48.1923 6.94772 48.1923 7.5C48.1923 8.05228 48.64 8.5 49.1923 8.5V6.5ZM52.2692 8.5C52.8215 8.5 53.2692 8.05228 53.2692 7.5C53.2692 6.94772 52.8215 6.5 52.2692 6.5V8.5ZM55.3462 6.5C54.7939 6.5 54.3462 6.94772 54.3462 7.5C54.3462 8.05228 54.7939 8.5 55.3462 8.5V6.5ZM58.4231 8.5C58.9754 8.5 59.4231 8.05228 59.4231 7.5C59.4231 6.94772 58.9754 6.5 58.4231 6.5V8.5ZM61.5 6.5C60.9477 6.5 60.5 6.94772 60.5 7.5C60.5 8.05228 60.9477 8.5 61.5 8.5V6.5ZM64.5769 8.5C65.1292 8.5 65.5769 8.05228 65.5769 7.5C65.5769 6.94772 65.1292 6.5 64.5769 6.5V8.5ZM67.6538 6.5C67.1016 6.5 66.6538 6.94772 66.6538 7.5C66.6538 8.05228 67.1016 8.5 67.6538 8.5V6.5ZM70.7308 8.5C71.2831 8.5 71.7308 8.05228 71.7308 7.5C71.7308 6.94772 71.2831 6.5 70.7308 6.5V8.5ZM73.8077 6.5C73.2554 6.5 72.8077 6.94772 72.8077 7.5C72.8077 8.05228 73.2554 8.5 73.8077 8.5V6.5ZM76.8846 8.5C77.4369 8.5 77.8846 8.05228 77.8846 7.5C77.8846 6.94772 77.4369 6.5 76.8846 6.5V8.5ZM79.9615 6.5C79.4092 6.5 78.9615 6.94772 78.9615 7.5C78.9615 8.05228 79.4092 8.5 79.9615 8.5V6.5ZM1.5 8.5H3.03846V6.5H1.5V8.5ZM6.11538 8.5H9.19231V6.5H6.11538V8.5ZM12.2692 8.5H15.3462V6.5H12.2692V8.5ZM18.4231 8.5H21.5V6.5H18.4231V8.5ZM24.5769 8.5H27.6538V6.5H24.5769V8.5ZM30.7308 8.5H33.8077V6.5H30.7308V8.5ZM36.8846 8.5H39.9615V6.5H36.8846V8.5ZM43.0385 8.5H46.1154V6.5H43.0385V8.5ZM49.1923 8.5H52.2692V6.5H49.1923V8.5ZM55.3462 8.5H58.4231V6.5H55.3462V8.5ZM61.5 8.5H64.5769V6.5H61.5V8.5ZM67.6538 8.5H70.7308V6.5H67.6538V8.5ZM73.8077 8.5H76.8846V6.5H73.8077V8.5ZM79.9615 8.5H81.5V6.5H79.9615V8.5Z" fill="white" fill-opacity="0.5"/>
</svg>
