<svg width="24" height="24" viewBox="0 0 24 24" fill="none" xmlns="http://www.w3.org/2000/svg">
<path d="M7.339 10.0852L12 5.42424L16.6632 10.0873L19.3752 7.37528L12 0.000244141L4.6272 7.37301L7.339 10.0852ZM0 12.0002L2.71209 9.28775L5.424 11.9997L2.71191 14.7117L0 12.0002ZM7.339 13.9155L12 18.5762L16.6631 13.9133L19.3765 16.6239L19.3752 16.6253L12 24.0002L4.6272 16.6274L4.62336 16.6236L7.339 13.9155ZM18.576 12.0014L21.2881 9.28928L24 12.0012L21.288 14.7133L18.576 12.0014Z" fill="white"/>
<path d="M14.7505 11.9988H14.7517L11.9999 9.24683L9.96598 11.2802L9.73232 11.514L9.25038 11.996L9.24658 11.9998L9.25038 12.0037L11.9999 14.7536L14.7518 12.0017L14.7532 12.0001L14.7505 11.9988Z" fill="white"/>
</svg>
