<svg width="40" height="40" viewBox="0 0 40 40" fill="none" xmlns="http://www.w3.org/2000/svg">
<path d="M40 13C40 20.18 34.18 26 27 26C26.66 26 26.3 25.98 25.96 25.96C25.46 19.62 20.38 14.54 14.04 14.04C14.02 13.7 14 13.34 14 13C14 5.82 19.82 0 27 0C34.18 0 40 5.82 40 13Z" fill="#C8F169"/>
<path opacity="0.4" d="M26 27C26 34.18 20.18 40 13 40C5.82 40 0 34.18 0 27C0 19.82 5.82 14 13 14C13.34 14 13.7 14.02 14.04 14.04C20.38 14.54 25.46 19.62 25.96 25.96C25.98 26.3 26 26.66 26 27Z" fill="#C8F169"/>
<path d="M11.24 25.24L13 22L14.76 25.24L18 27L14.76 28.76L13 32L11.24 28.76L8 27L11.24 25.24Z" fill="#C8F169"/>
</svg>
