<svg width="18" height="18" viewBox="0 0 18 18" fill="none" xmlns="http://www.w3.org/2000/svg">
<path d="M15.4001 6.6001H8.20006C7.3164 6.6001 6.60006 7.31644 6.60006 8.2001V15.4001C6.60006 16.2838 7.3164 17.0001 8.20006 17.0001H15.4001C16.2837 17.0001 17.0001 16.2838 17.0001 15.4001V8.2001C17.0001 7.31644 16.2837 6.6001 15.4001 6.6001Z" stroke="white" stroke-width="2" stroke-linecap="round" stroke-linejoin="round"/>
<path d="M3.40006 11.4H2.60006C2.17571 11.4 1.76875 11.2314 1.46869 10.9314C1.16863 10.6313 1.00006 10.2243 1.00006 9.8V2.6C1.00006 2.17565 1.16863 1.76869 1.46869 1.46863C1.76875 1.16857 2.17571 1 2.60006 1H9.80006C10.2244 1 10.6314 1.16857 10.9314 1.46863C11.2315 1.76869 11.4001 2.17565 11.4001 2.6V3.4" stroke="white" stroke-width="2" stroke-linecap="round" stroke-linejoin="round"/>
</svg>
