<svg width="19" height="14" viewBox="0 0 19 14" fill="none" xmlns="http://www.w3.org/2000/svg">
<g clip-path="url(#clip0_1_70)">
<path d="M4.8097 7.99022C4.73899 9.19224 5.65818 10.1821 6.8602 10.2528C8.06222 10.1821 8.98142 9.12154 8.91071 7.91951C8.98142 6.71749 8.06222 5.65689 6.8602 5.58618C5.65818 5.7276 4.73899 6.7882 4.8097 7.99022ZM7.42586 7.99022C7.42586 8.48517 7.14303 8.90941 6.7895 8.90941C6.43596 8.90941 6.15313 8.48517 6.15313 7.99022C6.15313 7.49527 6.50667 7.07103 6.8602 7.07103C7.21374 7.07103 7.42586 7.49527 7.42586 7.99022Z" fill="white"/>
<path d="M11.4562 5.65649C10.2541 5.7272 9.33494 6.78781 9.40565 7.98983C9.33494 9.19185 10.2541 10.1817 11.4562 10.3232C12.6582 10.2525 13.5774 9.19185 13.5067 7.98983C13.5774 6.78781 12.6582 5.7272 11.4562 5.65649ZM11.4562 8.83831C11.1026 8.83831 10.8198 8.41407 10.8198 7.91912C10.8198 7.42417 11.1026 6.99993 11.4562 6.99993C11.8097 6.99993 12.0925 7.42417 12.0925 7.91912C12.0925 8.41407 11.8097 8.83831 11.4562 8.83831Z" fill="white"/>
<path d="M16.6869 3.11095C16.6162 3.04024 16.6162 2.96953 16.6162 2.96953C15.4141 1.48468 13.7172 0.424078 11.8081 -0.000164378C11.4545 -0.141579 11.0303 0.14125 10.9596 0.494785C10.8889 0.848321 11.101 1.27256 11.4545 1.34327C11.4545 1.34327 11.4545 1.34327 11.5253 1.34327C13.0808 1.69681 14.4949 2.54529 15.4848 3.74731C16.404 5.93923 16.9697 8.27256 16.9697 10.6766C15.9798 11.5958 14.7778 12.2322 13.4343 12.4443V12.1615C13.4343 12.1615 13.4343 12.1615 13.4343 12.0907C14.2828 11.7372 15.1313 11.313 15.8384 10.6766C16.1212 10.4645 16.1919 9.96953 15.9798 9.6867C15.7677 9.40388 15.2727 9.33317 14.9899 9.54529C13.3636 10.818 11.3131 11.4544 9.19192 11.3837C7.14141 11.4544 5.09091 10.818 3.46465 9.54529C3.18182 9.33317 2.68687 9.33317 2.47475 9.6867C2.26263 10.0402 2.26263 10.4645 2.61616 10.6766C3.32323 11.2423 4.17172 11.7372 5.0202 12.0907V12.4443C3.67677 12.2322 2.47475 11.5958 1.48485 10.6766C1.48485 8.27256 1.9798 5.93923 2.9697 3.74731C3.88889 2.54529 5.30303 1.76751 6.85859 1.41398C7.21212 1.27256 7.42424 0.919028 7.35354 0.565492C7.28283 0.14125 6.92929 -0.0708715 6.50505 -0.000164378C4.59596 0.424078 2.89899 1.41398 1.69697 2.96953V3.04024V3.11095C0.282828 5.93923 0.141414 8.48468 0 10.9594C0 11.1716 0.0707071 11.3837 0.212121 11.5251C1.62626 13.0099 3.53535 13.8584 5.58586 14.0705C5.79798 14.0705 5.93939 13.9998 6.08081 13.8584C6.22222 13.717 6.29293 13.5756 6.29293 13.3635V12.6564C8.13131 13.0806 10.1111 13.0806 11.9495 12.6564V13.3635C11.9495 13.5756 12.0202 13.717 12.1616 13.8584C12.303 13.9998 12.4444 14.0705 12.6566 14.0705C14.7071 13.9291 16.6869 13.0806 18.101 11.5958C18.2424 11.4544 18.3131 11.2423 18.3131 11.0301C18.1717 8.48468 18.0303 5.93923 16.6869 3.11095Z" fill="white"/>
<path d="M14.4234 3.95938C14.6355 3.60584 14.4941 3.1816 14.1406 3.04018C12.585 2.33311 10.888 1.90887 9.12035 1.97958C7.42338 1.90887 5.6557 2.33311 4.10015 3.04018C3.81732 3.1816 3.6759 3.60584 3.81732 3.95938C4.02944 4.31291 4.45368 4.38362 4.80722 4.2422C6.15065 3.60584 7.6355 3.32301 9.12035 3.32301C10.6052 3.32301 12.1608 3.60584 13.5042 4.2422C13.5749 4.31291 13.7163 4.31291 13.8577 4.31291C14.0698 4.31291 14.282 4.1715 14.4234 3.95938Z" fill="white"/>
</g>
<defs>
<clipPath id="clip0_1_70">
<rect width="18.3838" height="14" fill="white"/>
</clipPath>
</defs>
</svg>
