<svg width="40" height="40" viewBox="0 0 40 40" fill="none" xmlns="http://www.w3.org/2000/svg">
<path opacity="0.4" d="M39.48 14.88H0V8.84C0 3.96 3.96 0 8.84 0H13.5C16.76 0 17.78 1.06 19.08 2.8L21.88 6.52C22.5 7.34 22.58 7.46 23.74 7.46H29.32C34.06 7.44 38.1 10.56 39.48 14.88Z" fill="#C8F169"/>
<path d="M39.98 17.6799C39.94 16.6999 39.78 15.7799 39.48 14.8799H0V29.2999C0 35.1999 4.8 39.9999 10.7 39.9999H29.3C35.2 39.9999 40 35.1999 40 29.2999V18.1399C40 17.9999 40 17.8199 39.98 17.6799ZM25.08 27.9399L20.78 31.6999C20.56 31.8999 20.28 31.9999 20 31.9999C19.72 31.9999 19.44 31.8999 19.22 31.6999L14.92 27.9399C13.56 26.7399 13.38 24.6999 14.5 23.2799C15.66 21.8399 17.7 21.5799 19.18 22.6799L19.98 23.2799L20.78 22.6799C22.26 21.5799 24.3 21.8399 25.46 23.2799C26.62 24.6999 26.44 26.7399 25.08 27.9399Z" fill="#C8F169"/>
</svg>
