<svg width="16" height="24" viewBox="0 0 16 24" fill="none" xmlns="http://www.w3.org/2000/svg">
<g clip-path="url(#clip0_5_652)">
<path d="M10.2092 7.385C10.2092 3.94484 8.55084 0.981001 7.28063 0.0106976C7.28063 0.0106976 7.19242 -0.042228 7.19242 0.098907C7.08657 6.74989 3.71697 8.56701 1.84693 10.9839C-2.44004 16.5941 1.54702 22.7334 5.60465 23.8625C7.88045 24.4976 5.07539 22.7334 4.72256 19.0286C4.29915 14.53 10.2092 11.1074 10.2092 7.385Z" fill="white"/>
<path d="M12.432 9.66069C12.4144 9.64305 12.3791 9.64305 12.3438 9.66069C12.3438 9.66069 12.3438 9.66069 12.3262 9.67833C12.2556 10.5075 11.3382 12.307 10.1915 13.9477C6.29266 19.5225 8.51554 22.2041 9.76811 23.6507C10.4914 24.4975 9.76811 23.6507 11.5852 22.7862C11.7264 22.7157 15.1136 20.9162 15.4841 16.8409C15.8546 12.8715 13.3318 10.384 12.432 9.66069Z" fill="white" fill-opacity="0.8"/>
</g>
<defs>
<clipPath id="clip0_5_652">
<rect width="15.5196" height="24" fill="white"/>
</clipPath>
</defs>
</svg>
