<svg width="21" height="22" viewBox="0 0 21 22" fill="none" xmlns="http://www.w3.org/2000/svg">
<path d="M1.86986 1.85767C2.90172 1.85767 3.7399 2.69585 3.7399 3.72771V18.2594C3.7399 19.2913 2.90172 20.1295 1.86986 20.1295C0.838003 20.1295 -0.000183105 19.2913 -0.000183105 18.2594V3.72771C0.00299184 2.69585 0.838003 1.85767 1.86986 1.85767Z" fill="white"/>
<path d="M13.9442 0.727475C14.6712 1.46089 14.6649 2.64514 13.9315 3.36903L3.6002 13.5924C2.86679 14.3194 1.68254 14.3131 0.958649 13.5797C0.231587 12.8462 0.237936 11.662 0.971348 10.9381L11.3026 0.71795C12.036 -0.0122869 13.2203 -0.00593698 13.9442 0.727475Z" fill="white"/>
<path d="M13.9442 21.247C14.6712 20.5136 14.6649 19.3294 13.9315 18.6055L3.6002 8.38535C2.86679 7.65828 1.68254 7.66463 0.958649 8.39805C0.231587 9.13146 0.237936 10.3157 0.971348 11.0396L11.3026 21.2597C12.036 21.99 13.2203 21.9836 13.9442 21.247Z" fill="white"/>
<path d="M19.5797 13.4017C20.3068 14.1351 20.3036 15.3194 19.5734 16.0464L14.1378 21.4566C13.4044 22.1836 12.2202 22.1804 11.4931 21.4502C10.7661 20.7168 10.7692 19.5325 11.4995 18.8055L16.935 13.3954C17.6652 12.6683 18.8495 12.6715 19.5797 13.4017Z" fill="white"/>
<path d="M19.5797 8.59816C20.3068 7.86474 20.3036 6.68049 19.5734 5.95342L14.1378 0.543318C13.4044 -0.183744 12.2202 -0.180569 11.4931 0.549668C10.7661 1.28308 10.7692 2.46734 11.4995 3.1944L16.935 8.6045C17.6684 9.33157 18.8526 9.33157 19.5797 8.59816Z" fill="white"/>
<path d="M12.8298 12.8876C13.8714 12.8876 14.7157 12.0432 14.7157 11.0016C14.7157 9.96008 13.8714 9.11572 12.8298 9.11572C11.7882 9.11572 10.9439 9.96008 10.9439 11.0016C10.9439 12.0432 11.7882 12.8876 12.8298 12.8876Z" fill="white"/>
</svg>
