<svg width="41" height="40" viewBox="0 0 41 40" fill="none" xmlns="http://www.w3.org/2000/svg">
<path opacity="0.4" d="M17.4856 0.884779C18.8653 -0.294926 21.1247 -0.294926 22.5243 0.884779L25.6836 3.60407C26.2834 4.12394 27.4031 4.5439 28.2029 4.5439H31.6021C33.7216 4.5439 35.4611 6.28345 35.4611 8.40292V11.802C35.4611 12.5818 35.881 13.7215 36.4009 14.3214L39.1202 17.4806C40.2999 18.8603 40.2999 21.1197 39.1202 22.5194L36.4009 25.6785C35.881 26.2784 35.4611 27.3981 35.4611 28.1979V31.5971C35.4611 33.7165 33.7216 35.4561 31.6021 35.4561H28.2029C27.4231 35.4561 26.2834 35.8761 25.6836 36.3959L22.5243 39.1152C21.1447 40.2949 18.8853 40.2949 17.4856 39.1152L14.3264 36.3959C13.7266 35.8761 12.6069 35.4561 11.8071 35.4561H8.3479C6.22843 35.4561 4.48887 33.7165 4.48887 31.5971V28.1779C4.48887 27.3981 4.069 26.2784 3.56912 25.6785L0.869783 22.4994C-0.289928 21.1197 -0.289928 18.8803 0.869783 17.5006L3.56912 14.3214C4.069 13.7215 4.48887 12.6018 4.48887 11.822V8.40292C4.48887 6.28345 6.22843 4.5439 8.3479 4.5439H11.8071C12.5869 4.5439 13.7266 4.12394 14.3264 3.60407L17.4856 0.884779Z" fill="#C8F169"/>
<path d="M29.1427 18.1203C28.7628 17.5804 28.123 17.2805 27.3632 17.2805H23.4641C23.2042 17.2805 22.9643 17.1805 22.8043 16.9806C22.6443 16.7806 22.5644 16.5207 22.6043 16.2408L23.0842 13.1215C23.2842 12.2018 22.6643 11.142 21.7446 10.8421C20.8848 10.5222 19.865 10.962 19.4651 11.5619L15.5861 17.3205V16.6007C15.5861 15.201 14.9863 14.6212 13.5066 14.6212H12.5268C11.0472 14.6212 10.4474 15.201 10.4474 16.6007V26.1583C10.4474 27.558 11.0472 28.1378 12.5268 28.1378H13.5066C14.9063 28.1378 15.5061 27.5979 15.5661 26.3182L18.5054 28.5777C18.9053 28.9776 19.8051 29.1975 20.4449 29.1975H24.1439C25.4236 29.1975 26.7033 28.2377 26.9833 27.058L29.3227 19.9398C29.5826 19.3 29.5226 18.6402 29.1427 18.1203Z" fill="#C8F169"/>
</svg>
