<svg width="20" height="20" viewBox="0 0 20 20" fill="none" xmlns="http://www.w3.org/2000/svg">
<path d="M6.42667 6.74H0.313333C0.14 6.74 0 6.6 0 6.42667V0.313333C0 0.14 0.14 0 0.313333 0H6.43333C6.6 0 6.74667 0.14 6.74667 0.313333V6.43333C6.75333 6.6 6.61333 6.74 6.42667 6.74Z" fill="white"/>
<path d="M19.66 6.75343H13.54C13.3734 6.75343 13.2267 6.61343 13.2267 6.44009V0.326761C13.2267 0.160094 13.3667 0.0134277 13.54 0.0134277H19.66C19.8267 0.0134277 19.9734 0.153428 19.9734 0.326761V6.44676C19.9734 6.61343 19.8334 6.75343 19.66 6.75343Z" fill="white"/>
<path d="M6.42667 20.0001H0.313333C0.14 20.0001 0 19.8601 0 19.6868V13.5668C0 13.4001 0.14 13.2534 0.313333 13.2534H6.43333C6.6 13.2534 6.74667 13.3934 6.74667 13.5668V19.6868C6.75333 19.8468 6.61333 20.0001 6.42667 20.0001Z" fill="white"/>
<path d="M19.66 20.0001H13.54C13.3734 20.0001 13.2267 19.8601 13.2267 19.6868V13.5668C13.2267 13.4001 13.3667 13.2534 13.54 13.2534H19.66C19.8267 13.2534 19.9734 13.3934 19.9734 13.5668V19.6868C19.9734 19.8601 19.8334 20.0001 19.66 20.0001Z" fill="white"/>
<path d="M13.0533 13.4H6.93333C6.76666 13.4 6.62 13.26 6.62 13.0867V6.96665C6.62 6.79999 6.75999 6.65332 6.93333 6.65332H13.0533C13.22 6.65332 13.3667 6.79332 13.3667 6.96665V13.0867C13.3733 13.26 13.2333 13.4 13.0533 13.4Z" fill="white"/>
</svg>
