<svg width="40" height="40" viewBox="0 0 40 40" fill="none" xmlns="http://www.w3.org/2000/svg">
<path opacity="0.4" d="M30.3529 11.2737C30.2162 11.2541 30.0794 11.2541 29.9426 11.2737C26.9142 11.176 24.511 8.69459 24.511 5.6466C24.511 2.53999 27.0314 0 30.1576 0C33.2642 0 35.8042 2.52045 35.8042 5.6466C35.7846 8.69459 33.3814 11.176 30.3529 11.2737Z" fill="#C8F169"/>
<path opacity="0.4" d="M36.7225 24.8138C34.5342 26.2792 31.4666 26.8263 28.6336 26.455C29.376 24.8529 29.7668 23.0749 29.7863 21.1992C29.7863 19.2454 29.3565 17.3892 28.5359 15.7676C31.4275 15.3768 34.4951 15.9238 36.7029 17.3892C39.79 19.4212 39.79 22.7623 36.7225 24.8138Z" fill="#C8F169"/>
<path opacity="0.4" d="M8.68482 11.2737C8.82159 11.2541 8.95836 11.2541 9.09513 11.2737C12.1236 11.176 14.5268 8.69459 14.5268 5.6466C14.5268 2.53999 12.0064 0 8.88021 0C5.7736 0 3.23361 2.52045 3.23361 5.6466C3.25315 8.69459 5.65637 11.176 8.68482 11.2737Z" fill="#C8F169"/>
<path opacity="0.4" d="M8.89974 21.1991C8.89974 23.0943 9.31005 24.8919 10.0525 26.5136C7.29759 26.8066 4.42545 26.2205 2.3153 24.8333C-0.771767 22.7817 -0.771767 19.4406 2.3153 17.3891C4.40591 15.9823 7.35621 15.4157 10.1307 15.7284C9.32959 17.3696 8.89974 19.2257 8.89974 21.1991Z" fill="#C8F169"/>
<path d="M19.7826 27.0998C19.6263 27.0802 19.4505 27.0802 19.2746 27.0998C15.6796 26.9825 12.8074 24.0322 12.8074 20.3981C12.8074 16.6858 15.7968 13.6769 19.5286 13.6769C23.2409 13.6769 26.2498 16.6858 26.2498 20.3981C26.2498 24.0322 23.3972 26.9825 19.7826 27.0998Z" fill="#C8F169"/>
<path d="M13.4326 31.1443C10.4823 33.1177 10.4823 36.361 13.4326 38.3149C16.7932 40.5618 22.3031 40.5618 25.6637 38.3149C28.614 36.3415 28.614 33.0981 25.6637 31.1443C22.3226 28.8974 16.8128 28.8974 13.4326 31.1443Z" fill="#C8F169"/>
</svg>
