<svg width="19" height="16" viewBox="0 0 19 16" fill="none" xmlns="http://www.w3.org/2000/svg">
<path d="M17.7749 0.356546C17.3738 0.0356546 16.732 -0.124791 16.2507 0.115877L0.76767 6.37326C0.125887 6.61393 -0.195004 7.33593 0.125887 7.97772C0.286333 8.29861 0.527001 8.53928 0.76767 8.6195L1.73034 9.02061C2.05124 9.18106 2.45235 9.02061 2.6128 8.69972C2.77324 8.37883 2.6128 7.97772 2.21168 7.81727L1.5699 7.49638L16.732 1.39944C16.8122 1.39944 16.8122 1.39944 16.8925 1.39944C16.9727 1.39944 16.9727 1.47967 16.9727 1.55989L14.2451 14.4758C14.2451 14.556 14.1649 14.6362 14.0847 14.7164C14.0044 14.7164 13.9242 14.7164 13.844 14.6362L8.38884 10.4646L13.6835 5.08969C13.9242 4.84903 13.9242 4.36769 13.6835 4.12702C13.4429 3.88635 13.122 3.88635 12.8813 4.0468L5.0997 8.6195C4.77881 8.77994 4.61837 9.18106 4.77881 9.50195C4.93926 9.82284 5.34037 9.98329 5.66126 9.82284C5.74149 9.82284 5.74149 9.74262 5.74149 9.74262L9.03062 7.81727L7.42617 9.42173C6.86461 9.90306 6.86461 10.7855 7.34594 11.3471C7.42617 11.4273 7.50639 11.4273 7.50639 11.5075L12.8813 15.6791C13.2022 15.9198 13.5231 16 13.844 16C14.0044 16 14.2451 16 14.4056 15.9198C14.9671 15.7593 15.288 15.278 15.4485 14.7164L18.176 1.80056C18.4167 1.31922 18.2563 0.75766 17.7749 0.356546Z" fill="white"/>
</svg>
